# xmcd
#
# Track frame offsets: 
#        150
#        21105
#        37290
#        56055
#        77675
#        96055
#        114032
#        129400
#        146532
#        162935
#        180460
#        200565
#
# Disc length: 3109 seconds
#
# Revision: 2
# Processed by: cddbd v1.5.2PL0 Copyright (c) Steve Scherf et al.
# Submitted via: ExactAudioCopyFreeDBPlugin 1.0
#
DISCID=9b0c230c
DTITLE=Res - How I Do
DYEAR=2001
DGENRE=R&B
TTITLE0=Golden Boys
TTITLE1=They-Say Vision
TTITLE2=700 Mile Situation
TTITLE3=Ice King
TTITLE4=Sittin' Back
TTITLE5=How I Do
TTITLE6=If There Ain't Nothing
TTITLE7=The Hustler
TTITLE8=I've Known The Garden
TTITLE9=Let Love
TTITLE10=Tsunami
TTITLE11=Toxic You
EXTD=YEAR: 2001 ID3G: 27
EXTT0=
EXTT1=
EXTT2=
EXTT3=
EXTT4=
EXTT5=
EXTT6=
EXTT7=
EXTT8=
EXTT9=
EXTT10=
EXTT11=
PLAYORDER=
